<svg height="512pt" viewBox="0 0 512 512" width="512pt" xmlns="http://www.w3.org/2000/svg"><path d="m512 256c0 141.386719-114.613281 256-256 256s-256-114.613281-256-256 114.613281-256 256-256 256 114.613281 256 256zm0 0" fill="#ff7855"/><path d="m512 256c0-4.695312-.136719-9.359375-.386719-13.992188l-96.613281-96.617187-318 221.21875 145.007812 145.003906c4.632813.25 9.296876.386719 13.992188.386719 141.386719 0 256-114.613281 256-256zm0 0" fill="#ff562b"/><path d="m256 228.347656v55.304688l159 82.957031v-221.21875zm0 0" fill="#ffd460"/><path d="m97 145.390625v221.21875l159-82.957031v-55.304688zm0 0" fill="#ffd460"/><path d="m224.199219 256-127.199219 110.609375h318l-127.199219-110.609375zm0 0" fill="#ffe9b0"/><path d="m256 283.652344 159-138.261719h-318zm0 0" fill="#ffbe11"/></svg>