<?xml version="1.0" encoding="iso-8859-1"?>
<!-- Generator: Adobe Illustrator 21.0.0, SVG Export Plug-In . SVG Version: 6.00 Build 0)  -->
<svg xmlns="http://www.w3.org/2000/svg" xmlns:xlink="http://www.w3.org/1999/xlink" version="1.1" id="Capa_1" x="0px" y="0px" viewBox="0 0 512 512" style="enable-background:new 0 0 512 512;" xml:space="preserve" width="512" height="512">
<g>
	<g>
		<g>
			<g>
				<g>
					<g>
						<g>
							<g>
								<g>
									<g>
										<g>
											<g>
												<circle style="fill:#00EFD1;" cx="256" cy="256" r="256"/>
											</g>
										</g>
									</g>
								</g>
							</g>
						</g>
					</g>
				</g>
			</g>
		</g>
	</g>
	<path style="fill:#00CEB4;" d="M512,256c0-5.52-0.195-10.994-0.539-16.427L403.939,132.052c-7.675-7.675-20.118-7.675-27.793,0   l-50.439,50.439l-57.228-57.2c-6.338-6.802-15.357-11.076-25.331-11.076H132.878c-19.065,0-34.664,15.599-34.664,34.664v86.495   c0,9.092,3.551,17.391,9.332,23.588l71.036,70.654l-44.028,44.028c-7.956,7.956-7.621,20.954,0.734,28.49L244.9,511.746   c3.682,0.157,7.379,0.254,11.1,0.254C397.385,512,512,397.385,512,256z"/>
	<g>
		<g>
			<path style="fill:#FF0335;" d="M343.396,241.769c-5.857-2.116-11.355-5.513-16.049-10.207l-11.459-11.459     c-7.675-7.675-7.675-20.118,0-27.793l60.259-60.259c7.675-7.675,20.118-7.675,27.793,0l11.459,11.459     c6.816,6.816,10.905,15.322,12.285,24.169l0.008-0.002c14.081,68.946-52.716,142.695-94.374,184.353     c-41.658,41.658-93.619,86.666-162.565,72.586l0.002-0.008c-8.847-1.38-17.353-5.469-24.169-12.285l-11.297-10.189     c-8.355-7.536-8.69-20.534-0.734-28.49l60.222-60.222c7.396-7.397,19.291-7.703,27.058-0.697l12.803,11.547     c4.695,4.694,8.091,10.192,10.207,16.049c12.077-8.834,26.519-22.233,40.524-36.239     C299.374,290.077,334.562,253.847,343.396,241.769z"/>
		</g>
		<g>
			<path style="fill:#990011;" d="M333.315,352.033c-41.659,41.659-93.612,86.666-162.568,72.583l0.007-0.007     c-8.844-1.383-17.357-5.467-24.17-12.28l-11.294-10.191c-8.358-7.534-8.689-20.535-0.736-28.489l60.223-60.223     c7.402-7.402,19.292-7.711,27.054-0.699l12.81,11.544c4.694,4.694,8.086,10.19,10.205,16.047     c12.074-8.836,26.517-22.235,40.519-36.236c1.957-1.957,4.319-4.334,6.96-7.034l47.95,47.95     C337.899,347.434,335.567,349.781,333.315,352.033z"/>
		</g>
		<path style="fill:#FFFFFF;" d="M243.148,114.215H132.877c-19.065,0-34.664,15.599-34.664,34.664v86.495    c0,19.065,15.599,34.664,34.664,34.664h70.767l37.25,25.728v-25.728h2.254c19.065,0,34.664-15.599,34.664-34.664v-86.495    C277.812,129.814,262.214,114.215,243.148,114.215z"/>
		<path style="fill:#FFF5CB;" d="M260.032,265.62c-5,2.81-10.76,4.42-16.88,4.42h-2.26v25.73l-37.25-25.73h-70.76    c-19.07,0-34.67-15.6-34.67-34.67v-86.49c0-11.78,5.95-22.24,15-28.51l65.46,64.76l19.35,19.14L260.032,265.62z"/>
		<g>
			<circle style="fill:#E67500;" cx="137.582" cy="195.043" r="13.618"/>
			<circle style="fill:#FFB84D;" cx="188.013" cy="195.043" r="13.618"/>
			<path style="fill:#E67500;" d="M198.022,204.27c-2.48,2.7-6.05,4.39-10.01,4.39c-7.52,0-13.62-6.1-13.62-13.62     c0-3.9,1.64-7.43,4.28-9.91L198.022,204.27z"/>
			<circle style="fill:#FFB84D;" cx="238.444" cy="195.043" r="13.618"/>
		</g>
	</g>
</g>















</svg>
